<svg width="337" height="93" viewBox="0 0 337 93" fill="none" xmlns="http://www.w3.org/2000/svg">
<path d="M2 20.3941V2H54.3807V20.3941" stroke="#051F36" stroke-width="3" stroke-linecap="square"/>
<path d="M54.3808 72.6059L54.3808 91L2.00003 91L2.00003 72.6059" stroke="#051F36" stroke-width="3" stroke-linecap="square"/>
<path d="M15.2378 7.69769H13.7378V10.6977H15.2378V7.69769ZM40.8005 10.6977H42.3005V7.69769H40.8005V10.6977ZM15.2378 10.6977H40.8005V7.69769H15.2378V10.6977Z" fill="#051F36"/>
<path d="M15.2378 82.0738H13.7378V85.0738H15.2378V82.0738ZM40.8005 85.0738H42.3005V82.0738H40.8005V85.0738ZM15.2378 85.0738H40.8005V82.0738H15.2378V85.0738Z" fill="#051F36"/>
<path d="M40.0018 30.2195V36.0462M40.0018 41.8729V36.0462M40.0018 36.0462C38.2139 33.8374 33.2459 29.4197 27.6769 29.4197M27.6769 29.4197C20.7156 29.4197 10.9014 33.9897 10.9014 46.2144C10.9014 58.439 18.7756 63.009 27.6769 63.009C30.1126 63.009 32.2973 62.6525 34.1817 62.1225M27.6769 29.4197C24.9761 30.9431 19.5744 36.3889 19.5744 45.9859C19.5744 55.5828 24.9761 60.7424 27.6769 62.1225M29.5028 47.8138H34.1817M34.1817 47.8138H46.3924H41.3712V58.439C40.32 59.4413 37.8065 61.103 34.1817 62.1225M34.1817 47.8138V62.1225" stroke="#051F36" stroke-width="3" stroke-linecap="square"/>
<path d="M125.021 30.2195V36.0462M125.021 41.8729V36.0462M125.021 36.0462C123.233 33.8374 118.265 29.4197 112.696 29.4197M112.696 29.4197C105.734 29.4197 95.9202 33.9897 95.9202 46.2144C95.9202 58.439 103.794 63.009 112.696 63.009C115.131 63.009 117.316 62.6525 119.2 62.1225M112.696 29.4197C109.995 30.9431 104.593 36.3889 104.593 45.9859C104.593 55.5828 109.995 60.7424 112.696 62.1225M114.522 47.8138H119.2M119.2 47.8138H131.411H126.39V58.439C125.339 59.4413 122.825 61.103 119.2 62.1225M119.2 47.8138V62.1225" stroke="#051F36" stroke-width="3" stroke-linecap="square"/>
<path d="M176.374 28.7343H168.842M161.311 28.7343H168.842M168.842 28.7343V53.1836C168.5 56.2683 166.286 62.4378 160.169 62.4378M160.169 62.4378C152.523 62.4378 150.583 56.7253 150.583 53.9834C150.583 51.7898 150.583 36.2367 150.583 28.7343H155.262H142.024M160.169 62.4378H155.262C145.95 62.4378 142.557 56.8015 142.024 53.9834V28.7343M137.117 28.7343H142.024" stroke="#051F36" stroke-width="3" stroke-linecap="square"/>
<path d="M182.879 62.3235V50.4416C183.564 54.5926 187.444 62.8947 197.486 62.8947C210.039 62.8947 210.382 55.3543 210.382 52.3838C210.382 49.4133 208.898 45.0719 201.138 43.1296C194.93 41.5759 192.009 38.7882 191.324 35.2465C190.981 33.0757 192.191 28.7114 197.486 28.62M197.486 28.62C203.79 28.5112 207.92 33.0658 208.299 39.8164M197.486 28.62C205.429 28.62 208.023 35.475 208.328 38.9024M208.299 39.8164C208.318 40.1538 208.328 40.4966 208.328 40.8447V38.9024M208.299 39.8164L208.328 28.62V38.9024" stroke="#051F36" stroke-width="3" stroke-linecap="square"/>
<path d="M196.802 62.7805C199.198 62.7805 203.649 60.8382 202.964 55.697C202.194 49.9162 183.906 48.2708 183.906 38.7882C183.906 31.202 192.351 28.62 197.03 28.62" stroke="#051F36" stroke-width="3" stroke-linecap="square"/>
<path d="M223.962 62.8948H229.211M243.02 62.8948H237.656M237.656 62.8948V28.7343H249.981M237.656 62.8948H229.211M249.981 28.7343V38.217M249.981 28.7343H229.211M217.001 38.5597V28.7343H229.211M229.211 28.7343V62.8948" stroke="#051F36" stroke-width="3" stroke-linecap="square"/>
<path d="M252.834 62.8947H258.198M267.441 62.8947H258.198M258.198 62.8947L263.157 50.2476M274.06 62.8947H280.793M280.793 62.8947H293.004H289.58L276.228 28.8485H271.55L269.175 34.9037M280.793 62.8947L275.544 50.2476M269.175 34.9037L275.544 50.2476M269.175 34.9037L263.157 50.2476M275.544 50.2476H263.157" stroke="#051F36" stroke-width="3" stroke-linecap="square"/>
<path d="M320.849 28.7343H329.636M335 28.7343H329.636M329.636 28.7343L319.59 56.8396M313.774 28.7343H307.725M307.725 28.7343H295.286H298.824L312.518 62.8948H317.426L319.59 56.8396M307.725 28.7343L319.59 56.8396" stroke="#051F36" stroke-width="3" stroke-linecap="square"/>
</svg>
